<svg xmlns="http://www.w3.org/2000/svg" viewBox="0 0 1200 800" role="img" aria-labelledby="title desc"><title id="title">Il cane e l'osso</title><desc id="desc">Un cane tiene un osso vicino a un fiume e vede il suo riflesso.</desc><defs><linearGradient id="sky" x1="0" y1="0" x2="0" y2="1"><stop stop-color="#f9d7ad"/><stop offset="1" stop-color="#fff7ea"/></linearGradient><linearGradient id="river" x1="0" y1="0" x2="1" y2="0"><stop stop-color="#7cc6d9"/><stop offset="1" stop-color="#3c8faa"/></linearGradient></defs><rect width="1200" height="800" fill="url(#sky)"/><circle cx="980" cy="135" r="68" fill="#ffd36b"/><path d="M0 490 C190 430 340 470 520 430 C700 390 850 430 1200 370 V800 H0Z" fill="#7caa69"/><path d="M0 555 C240 510 460 620 700 560 C900 510 1040 520 1200 590 V800 H0Z" fill="url(#river)"/><path d="M330 540 C470 500 615 500 760 540 L725 610 C575 575 455 575 360 610Z" fill="#805b43"/><g transform="translate(330 275)"><ellipse cx="210" cy="220" rx="155" ry="105" fill="#b56d3b"/><circle cx="95" cy="135" r="86" fill="#c9834d"/><path d="M42 75 L10 5 L78 45Z" fill="#7e472c"/><path d="M145 70 L195 10 L177 92Z" fill="#7e472c"/><ellipse cx="65" cy="135" rx="10" ry="13" fill="#1f252a"/><ellipse cx="125" cy="135" rx="10" ry="13" fill="#1f252a"/><ellipse cx="96" cy="167" rx="16" ry="12" fill="#1f252a"/><rect x="58" y="177" width="115" height="26" rx="13" fill="#f4eadf"/><circle cx="52" cy="190" r="22" fill="#f4eadf"/><circle cx="180" cy="190" r="22" fill="#f4eadf"/><path d="M75 320 L42 438" stroke="#7e472c" stroke-width="35" stroke-linecap="round"/><path d="M275 315 L320 430" stroke="#7e472c" stroke-width="35" stroke-linecap="round"/><path d="M345 205 C430 150 455 240 385 275" fill="none" stroke="#7e472c" stroke-width="28" stroke-linecap="round"/></g><g opacity=".25" transform="translate(345 610) scale(1,-.45)"><ellipse cx="210" cy="220" rx="155" ry="105" fill="#8c5e43"/><circle cx="95" cy="135" r="86" fill="#8c5e43"/></g><text x="70" y="90" font-family="Georgia,serif" font-size="58" fill="#24303a" font-weight="700">Il cane e l'osso</text><text x="74" y="132" font-family="Arial,sans-serif" font-size="25" fill="#5d6670">Favola di Esopo · livelli A1–C1</text></svg>